<svg width="183" height="55" viewBox="0 0 183 55" fill="none" xmlns="http://www.w3.org/2000/svg">
<path d="M0.00047776 0.104343C0.150824 0.0632246 0.274095 -0.000472716 0.396888 2.64537e-06C5.46405 0.0292374 10.5315 0.0180656 15.5981 0.123596C17.3248 0.159248 18.9114 1.06838 20.33 2.57527C23.568 6.0138 23.8671 15.8371 19.422 19.3607C19.1959 19.54 18.9707 19.7211 18.6636 19.9659C19.5083 20.5446 20.3394 20.9325 21.036 21.623C23.7096 24.2736 24.7985 30.2042 23.6016 35.4132C22.5571 39.9579 20.0774 41.8346 17.1936 42.8329C16.2464 43.1609 15.2545 43.3311 14.2817 43.3413C9.54505 43.3924 4.80804 43.3641 0 43.3641C0.000477794 28.9607 0.00047776 14.5553 0.00047776 0.104343ZM5.06653 37.0242C8.58947 37.0242 12.0108 37.144 15.4257 36.981C17.5725 36.8785 19.1237 33.4445 18.9945 30.1044C18.8673 26.812 17.5088 24.0122 15.4089 23.8657C12.0234 23.6297 8.62864 23.6965 5.23758 23.6438C5.18693 23.6433 5.13549 23.7545 5.06637 23.8346L5.06653 37.0242ZM5.07831 18.0076C8.22714 18.0076 11.2638 18.1788 14.287 17.9508C16.5134 17.7828 17.77 15.1262 17.6867 11.4947C17.6129 8.27937 16.3407 6.3456 14.0503 6.25528C11.1786 6.14286 8.30374 6.19491 5.42997 6.18493C5.31307 6.18445 5.19601 6.27857 5.07831 6.32849V18.0076ZM162.1 12.0647H166.324V15.4431C166.794 14.9019 167.367 14.3008 167.895 13.6236C171.131 9.47846 178.808 9.9871 181.435 18.3347C183.696 25.5188 183.598 32.7436 180.546 39.4319C178.856 43.1364 176.238 44.4603 173.273 44.2221C170.698 44.0146 168.43 42.8063 166.645 39.2472V55H162.1C162.1 40.6755 162.1 26.4108 162.1 12.0647ZM166.391 27.8837C166.581 29.4569 166.686 31.0679 166.98 32.5969C167.636 36.0091 169.636 38.5323 171.707 38.7503C174.478 39.0419 176.467 37.5143 177.468 33.8488C178.741 29.1905 178.696 24.4925 176.836 20.1389C174.642 15.0033 169.384 15.4326 167.525 20.8125C166.76 23.0272 166.385 25.3581 166.391 27.8837ZM159.107 38.8829C159.107 40.1704 159.138 41.4779 159.085 42.7787C159.072 43.0998 158.803 43.6422 158.628 43.6645C157.31 43.8283 155.971 44.1149 154.671 43.9124C153.524 43.7337 152.893 42.2834 152.539 40.6063C149.817 43.9132 146.696 44.6283 143.376 44.0144C140.599 43.5013 138.299 40.0989 138.101 36.3212C137.828 31.1145 139.169 27.7243 142.301 26.49C144.498 25.6248 146.787 25.2771 149.034 24.6926C149.579 24.551 150.13 24.4355 150.663 24.2182C151.685 23.8018 152.423 22.9571 152.497 21.2201C152.575 19.4247 152.108 18.0257 150.978 17.3462C149.048 16.1875 147.083 16.2162 145.183 17.543C144.316 18.1481 143.801 19.366 143.347 21.4345H138.895C138.899 18.9016 139.489 16.7726 140.617 14.9803C142.106 12.6125 144.047 11.683 146.138 11.3566C148.326 11.0151 150.502 11.0303 152.628 12.1001C155.487 13.5388 156.856 16.3536 156.852 20.86C156.848 25.6436 156.85 30.4272 156.85 35.2114C156.849 38.6065 156.849 38.6065 159.107 38.8829ZM152.226 28.0884C150.823 28.4511 149.539 28.7292 148.272 29.1247C146.94 29.5406 145.582 29.9009 144.311 30.5954C143.065 31.2766 142.642 33.0141 142.683 34.8799C142.722 36.6637 143.539 37.6631 144.591 38.2119C146.396 39.1529 148.205 39.0369 149.927 37.8354C151.159 36.9748 152.098 35.5677 152.208 33.4179C152.299 31.6272 152.226 29.8177 152.226 28.0884ZM37.6661 11.1608C44.6484 11.0384 48.743 18.6765 48.311 29.0767C48.1612 32.6915 47.5103 36.0699 45.9159 38.9269C44.1977 42.0051 41.987 43.626 39.3366 44.0657C37.1235 44.4339 34.9729 44.2176 32.9222 42.8286C29.8683 40.7596 28.1263 37.149 27.3935 32.3381C26.8911 29.0408 26.913 25.7572 27.4764 22.4955C28.7191 15.3005 32.4317 11.1888 37.6661 11.1608ZM31.5881 27.7575C31.7714 29.2842 31.8671 30.8488 32.1549 32.3303C32.8874 36.102 34.8822 38.5924 37.1628 38.7574C39.982 38.9613 41.9545 37.1915 43.0021 33.2727C44.0251 29.447 44.0267 25.5316 42.9051 21.7521C41.2435 16.1525 36.7166 14.7207 33.8015 18.8828C32.1393 21.2558 31.7102 24.4091 31.5881 27.7575ZM61.8911 11.1612C68.1887 11.1465 72.4737 17.4797 72.5534 26.8997C72.5871 30.8773 72.153 34.6702 70.5884 38.0023C68.3488 42.7725 65.1138 44.4415 61.3894 44.1884C60.0172 44.095 58.5946 43.6401 57.3157 42.8909C54.3129 41.1318 52.5225 37.6683 51.7268 33.0326C51.0284 28.9619 51.1061 24.9168 51.9945 20.938C53.357 14.8348 57.0947 11.1719 61.8911 11.1612ZM67.9274 26.9116C67.8258 26.0762 67.7256 24.4619 67.4238 22.9359C66.6566 19.0551 64.629 16.699 62.0744 16.5333C59.6685 16.3769 57.5046 18.4939 56.5715 22.2015C55.4724 26.5684 55.5533 30.9182 57.2093 34.9871C58.9345 39.2259 62.8452 40.1547 65.41 36.9921C67.3669 34.579 67.8457 31.2472 67.9274 26.9116ZM106.865 20.7662C105.428 20.7662 104.028 20.7837 102.629 20.7438C102.457 20.7391 102.189 20.4814 102.133 20.2506C101.347 16.9906 99.4963 16.6029 97.5828 16.5865C96.7893 16.5794 95.945 16.8677 95.2104 17.3276C93.6402 18.3107 93.4656 20.962 94.9372 22.2319C95.9581 23.113 97.1567 23.5862 98.3082 24.0702C99.9375 24.7549 101.619 25.1673 103.238 25.8972C107.377 27.7642 108.995 33.9572 106.677 39.0626C105.566 41.5109 103.903 42.8362 101.997 43.5229C99.1799 44.5375 96.3749 44.6119 93.6217 43.1281C90.6758 41.5397 89.1196 38.3519 88.8899 33.5267H93.385C94.6631 38.5054 98.2746 40.4444 101.658 37.9003C102.441 37.3113 102.963 36.474 103.015 35.0973C103.071 33.6261 102.69 32.3609 101.806 31.8685C100.228 30.9905 98.5809 30.3884 96.9615 29.6799C95.6202 29.0928 94.2363 28.6688 92.942 27.9044C90.445 26.4287 89.3601 23.8898 89.3754 20.0191C89.3888 16.6431 90.7111 13.7505 93.0558 12.4818C96.2829 10.7356 99.5763 10.5183 102.818 12.4133C105.009 13.6944 106.315 16.221 106.858 19.6227C106.907 19.9366 106.865 20.2846 106.865 20.7662ZM82.4596 11.9774H86.6201V17.0545H82.5432C82.5144 17.6625 82.4773 18.088 82.4768 18.5132C82.4728 23.6378 82.4713 28.7622 82.4784 33.8859C82.4792 34.5678 82.5146 35.2516 82.5597 35.9309C82.6492 37.2859 83.1532 38.0907 84.0674 38.1648C84.9051 38.2335 85.7475 38.1796 86.6346 38.1796V43.2562C84.7344 43.9581 82.8032 43.921 80.9336 43.2995C78.7566 42.576 77.8722 40.3406 77.8531 36.1094C77.8268 30.3509 77.8453 24.5914 77.8445 18.8324V17.1394H74.3891V12.0043H77.7978V2.60118H82.4601C82.4596 5.677 82.4596 8.73025 82.4596 11.9774ZM121.369 43.4518C119.579 43.4518 117.885 43.535 116.196 43.4281C114.558 43.3244 113.298 41.7041 112.94 39.286C112.736 37.9069 112.628 36.5002 112.618 35.0881C112.582 29.6701 112.603 24.2508 112.603 18.8321V17.1187H109.159V12.0516H112.552V2.61021H117.223V11.8985H121.363V17.0025H117.39C117.343 17.4624 117.281 17.7804 117.281 18.0991C117.278 23.6155 117.266 29.1318 117.29 34.6476C117.302 37.5649 117.814 38.2671 119.752 38.2464C120.269 38.2414 120.788 38.2459 121.37 38.2459L121.369 43.4518ZM129.139 12.0823V17.4241C130.933 12.879 133.416 10.5105 137.082 11.3179V17.908C135.341 17.5173 133.661 17.4477 132.173 19.0432C130.221 21.1369 129.54 24.1964 129.491 27.5688C129.416 32.7823 129.472 38.0006 129.472 43.3308H124.897V12.0818C126.282 12.0823 127.639 12.0823 129.139 12.0823Z" fill="white" fill-opacity="0.4"/>
</svg>
