<svg width="240" height="60" viewBox="0 0 240 60" fill="none" xmlns="http://www.w3.org/2000/svg">
<path d="M17.167 38.37C17.167 36.57 16.551 35.272 15.319 34.507C14.106 33.742 12.333 33.359 9.99899 33.359V26.659C11.156 26.659 12.183 26.576 13.079 26.407C13.994 26.221 14.759 25.931 15.375 25.539C15.991 25.139 16.448 24.606 16.747 23.971C17.064 23.336 17.204 22.571 17.167 21.676V12.773C17.167 11.393 17.344 10.216 17.699 9.246C18.054 8.246 18.699 7.454 19.603 6.838C20.536 6.204 21.796 5.738 23.383 5.438C24.97 5.138 26.984 5 29.43 5V11.3C28.7447 11.3147 28.0615 11.3802 27.386 11.496C26.789 11.609 26.286 11.813 25.846 12.112C25.446 12.392 25.118 12.784 24.894 13.288C24.67 13.792 24.558 14.445 24.558 15.248V23.618C24.446 27.118 22.262 29.18 18.008 29.833V30.169C20.154 30.486 21.808 31.169 22.935 32.185C24.062 33.201 24.615 34.602 24.559 36.355V44.725C24.559 45.528 24.671 46.181 24.895 46.685C25.119 47.189 25.435 47.581 25.847 47.861C26.277 48.161 26.79 48.365 27.387 48.477C28.003 48.59 28.684 48.654 29.431 48.673V55C26.986 55 24.971 54.85 23.384 54.552C21.797 54.254 20.538 53.787 19.604 53.152C18.689 52.536 18.054 51.732 17.7 50.744C17.346 49.756 17.168 48.57 17.168 47.189V38.369M226.208 47.189C226.208 48.569 226.031 49.755 225.676 50.744C225.321 51.733 224.676 52.536 223.744 53.152C222.829 53.786 221.579 54.252 219.994 54.552C218.409 54.852 216.4 55 213.945 55V48.673C214.692 48.651 215.363 48.588 215.961 48.477C216.559 48.366 217.061 48.16 217.473 47.861C217.903 47.581 218.229 47.189 218.453 46.685C218.696 46.181 218.817 45.528 218.817 44.725V36.355C218.761 34.601 219.302 33.21 220.441 32.185C221.58 31.16 223.213 30.487 225.341 30.169V29.833C221.104 29.18 218.941 27.108 218.818 23.618V15.248C218.818 14.446 218.698 13.792 218.454 13.288C218.25 12.8081 217.909 12.3991 217.474 12.112C217.074 11.814 216.559 11.608 215.962 11.496C215.296 11.3774 214.622 11.3119 213.946 11.3V5C216.391 5 218.406 5.15 219.993 5.448C221.58 5.746 222.83 6.213 223.743 6.848C224.676 7.464 225.32 8.266 225.675 9.256C226.03 10.226 226.207 11.402 226.207 12.783V21.686C226.187 22.582 226.327 23.346 226.627 23.981C226.927 24.616 227.383 25.138 227.999 25.549C228.615 25.941 229.371 26.229 230.267 26.417C231.182 26.585 232.217 26.669 233.375 26.669V33.369C231.042 33.369 229.26 33.751 228.028 34.517C226.815 35.282 226.208 36.57 226.208 38.38V47.2" fill="white" fill-opacity="0.4"/>
<path d="M41.405 48.9231C40.769 48.9231 40.205 48.8801 39.739 48.7911C39.265 48.7161 38.853 48.6111 38.504 48.4731V45.4801C38.953 45.5977 39.4093 45.6852 39.87 45.7421C40.3904 45.8197 40.9159 45.8575 41.442 45.8551C41.9099 45.8547 42.3757 45.7919 42.827 45.6681C43.2953 45.5587 43.7313 45.3409 44.1 45.0321C44.487 44.7201 44.8 44.2901 45.036 43.7321C45.272 43.1741 45.392 42.4841 45.392 41.6361V14.2761H48.892V41.2701C48.892 42.5701 48.705 43.7151 48.332 44.6761C47.97 45.6361 47.459 46.4291 46.797 47.0531C46.147 47.6891 45.362 48.1571 44.439 48.4571C43.539 48.7691 42.285 48.9251 41.174 48.9251M66.287 38.8001H66.137C65.725 39.3601 65.314 39.8481 64.902 40.2601C64.5011 40.6515 64.0478 40.9854 63.555 41.2521C63.068 41.5141 62.525 41.7071 61.927 41.8321C61.329 41.9571 60.627 42.0191 59.85 42.0191C58.99 42.0191 58.197 41.8931 57.473 41.6451C56.7697 41.42 56.1245 41.0431 55.583 40.5411C55.059 40.0411 54.647 39.3931 54.348 38.6411C54.048 37.8681 53.898 36.9571 53.898 35.9091C53.898 33.8631 54.615 32.2911 56.05 31.1931C57.497 30.0951 59.693 29.4961 62.637 29.3961L66.08 29.2641V27.9641C66.08 27.1281 65.986 26.4291 65.8 25.8681C65.625 25.3081 65.363 24.8681 65.014 24.5211C64.677 24.1711 64.254 23.9211 63.741 23.7711C63.241 23.6211 62.668 23.5471 62.019 23.5471C61.0341 23.5388 60.0543 23.6904 59.118 23.9961C58.232 24.2961 57.378 24.6561 56.554 25.0811L55.356 22.5171C56.279 22.0171 57.308 21.5941 58.444 21.2441C59.6024 20.8914 60.8071 20.7148 62.018 20.7201C63.291 20.7201 64.388 20.8521 65.312 21.1131C66.248 21.3631 67.015 21.7681 67.614 22.3291C68.214 22.8791 68.681 23.5831 68.98 24.4441C69.279 25.3051 69.43 26.3471 69.43 27.5691V41.6421H66.972L66.287 38.8001ZM60.729 39.2581C61.489 39.2581 62.195 39.1381 62.844 38.9021C63.493 38.6661 64.044 38.3091 64.528 37.8351C65.002 37.3481 65.37 36.7431 65.632 36.0201C65.906 35.2841 66.044 34.4231 66.044 33.4371V31.5841L63.368 31.7161C62.245 31.7661 61.303 31.8911 60.542 32.0901C59.781 32.2891 59.17 32.5701 58.708 32.9321C58.2713 33.2649 57.9346 33.7116 57.735 34.2231C57.535 34.7231 57.435 35.2901 57.435 35.9261C57.435 37.0741 57.735 37.9261 58.333 38.4521C58.933 38.9891 59.733 39.2571 60.728 39.2571M72.288 21.0971H75.806L79.53 32.5301L80.017 34.1301L80.577 36.1141L81.082 38.0141L81.4 39.3801H81.53L81.848 38.0141L82.353 36.1141L82.913 34.1301L83.4 32.5301L87.124 21.0961H90.642L83.624 41.6441H79.3L72.288 21.0971ZM104.56 38.8001H104.41C103.998 39.3601 103.587 39.8481 103.175 40.2601C102.774 40.6515 102.321 40.9854 101.828 41.2521C101.341 41.5141 100.798 41.7071 100.2 41.8321C99.602 41.9571 98.9 42.0191 98.123 42.0191C97.263 42.0191 96.47 41.8931 95.746 41.6451C95.0427 41.42 94.3975 41.0431 93.856 40.5411C93.332 40.0411 92.92 39.3931 92.621 38.6411C92.321 37.8681 92.171 36.9571 92.171 35.9091C92.171 33.8631 92.888 32.2911 94.323 31.1931C95.77 30.0951 97.966 29.4961 100.91 29.3961L104.353 29.2641V27.9641C104.353 27.1281 104.259 26.4291 104.073 25.8681C103.898 25.3081 103.636 24.8681 103.287 24.5211C102.95 24.1711 102.527 23.9211 102.014 23.7711C101.514 23.6211 100.941 23.5471 100.292 23.5471C99.3071 23.5388 98.3273 23.6904 97.391 23.9961C96.505 24.2961 95.651 24.6561 94.827 25.0811L93.629 22.5171C94.552 22.0171 95.581 21.5941 96.717 21.2441C97.8754 20.8914 99.0801 20.7148 100.291 20.7201C101.564 20.7201 102.661 20.8521 103.585 21.1131C104.521 21.3631 105.288 21.7681 105.887 22.3291C106.487 22.8791 106.954 23.5831 107.253 24.4441C107.552 25.3051 107.703 26.3471 107.703 27.5691V41.6421H105.253L104.56 38.8001ZM99.002 39.2671C99.762 39.2671 100.468 39.1471 101.117 38.9111C101.766 38.6751 102.317 38.3181 102.801 37.8441C103.275 37.3571 103.643 36.7521 103.905 36.0291C104.179 35.2931 104.317 34.4321 104.317 33.4461V31.5931L101.641 31.7251C100.518 31.7751 99.576 31.9001 98.815 32.0991C98.054 32.2981 97.443 32.5791 96.981 32.9411C96.5443 33.2739 96.2076 33.7206 96.008 34.2321C95.808 34.7321 95.708 35.2991 95.708 35.9351C95.708 37.0831 96.008 37.9351 96.606 38.4611C97.206 38.9981 98.006 39.2661 99.001 39.2661M128.695 34.3261C128.695 35.5261 128.477 36.6211 128.04 37.5821C127.616 38.5301 127.004 39.3351 126.206 39.9961C125.408 40.6571 124.434 41.1631 123.286 41.5121C122.138 41.8491 120.846 42.0171 119.412 42.0171C118.027 42.0171 116.73 41.9041 115.52 41.6801C114.322 41.4671 113.318 41.1501 112.507 40.7251V37.3951L113.947 37.9951L115.669 38.5001L117.522 38.8741C118.152 38.9613 118.786 39.0054 119.422 39.0061C121.418 39.0061 122.89 38.6321 123.838 37.8831C124.798 37.1331 125.278 36.0611 125.278 34.6631C125.278 33.9891 125.184 33.4031 124.998 32.9031C124.823 32.4031 124.505 31.9491 124.044 31.5371C123.594 31.1131 122.99 30.7071 122.229 30.3211C121.469 29.9211 120.507 29.4911 119.347 29.0211C118.247 28.5841 117.27 28.1211 116.447 27.5991C115.647 27.0751 114.962 26.4991 114.427 25.8391C113.9 25.183 113.499 24.4341 113.247 23.6311C112.997 22.8081 112.873 21.8711 112.873 20.8241C112.873 19.7261 113.073 18.7471 113.473 17.8861C113.873 17.0251 114.433 16.3011 115.157 15.7161C115.881 15.1161 116.741 14.6621 117.739 14.3501C118.737 14.0381 119.859 13.8821 121.069 13.8821C122.554 13.8821 123.889 14.0251 125.074 14.3121C126.259 14.5861 127.314 14.9421 128.237 15.3791L126.983 18.2991C126.183 17.9371 125.249 17.6251 124.213 17.3631C123.176 17.0869 122.106 16.9484 121.033 16.9511C119.511 16.9511 118.333 17.3071 117.496 18.0181C116.66 18.7181 116.242 19.6651 116.242 20.8621C116.242 21.5621 116.336 22.1921 116.522 22.7151C116.709 23.2271 117.022 23.6951 117.458 24.1191C117.895 24.5311 118.458 24.9241 119.18 25.2991C120.047 25.7267 120.934 26.1138 121.837 26.4591C122.972 26.9091 123.964 27.3591 124.812 27.8441C125.672 28.3181 126.39 28.8441 126.964 29.4441C127.535 30.0385 127.975 30.7461 128.255 31.5211C128.555 32.3071 128.713 33.2711 128.713 34.3451M141.376 41.9971C140.116 41.9971 138.936 41.8031 137.839 41.4171C136.752 41.0249 135.772 40.3842 134.976 39.5461C134.176 38.6861 133.529 37.5941 133.076 36.2711C132.614 34.9361 132.384 33.3331 132.384 31.4711C132.384 29.5111 132.621 27.8531 133.084 26.4931C133.558 25.1211 134.207 24.0101 135.03 23.1631C135.866 22.3031 136.83 21.6781 137.95 21.2931C139.07 20.9081 140.252 20.7131 141.524 20.7131C142.481 20.7115 143.435 20.8182 144.368 21.0311C145.304 21.2441 146.083 21.5051 146.708 21.8171L145.708 24.6991C145.396 24.5644 145.078 24.4456 144.754 24.3431C144.399 24.215 144.037 24.1088 143.669 24.0251C143.306 23.9273 142.937 23.8522 142.565 23.8001C142.203 23.7381 141.86 23.7061 141.535 23.7061C139.575 23.7061 138.148 24.3361 137.25 25.6061C136.352 26.8531 135.903 28.8001 135.903 31.4441C135.903 34.0771 136.353 36.0041 137.25 37.2271C138.15 38.4271 139.55 39.0421 141.386 39.0421C142.386 39.0421 143.306 38.9291 144.118 38.7051C144.941 38.4681 145.69 38.2051 146.364 37.8821V40.9141C145.679 41.2802 144.949 41.5568 144.193 41.7371C143.433 41.9241 142.446 42.0171 141.336 42.0171M159.933 20.7211L161.149 20.7761C161.538 20.794 161.926 20.8381 162.309 20.9081L161.859 24.0521L160.774 23.9021C160.412 23.8521 160.069 23.8271 159.744 23.8271C158.958 23.8271 158.241 23.9891 157.592 24.3141C156.942 24.6261 156.392 25.0811 155.908 25.6801C155.446 26.2661 155.085 26.9781 154.823 27.8131C154.573 28.6361 154.449 29.5531 154.449 30.5631V41.6411H151.043V21.0981H153.813L154.225 24.8581H154.375L155.367 23.3051C155.71 22.8233 156.113 22.3865 156.565 22.0051C157.011 21.6202 157.517 21.3105 158.062 21.0881C158.612 20.8511 159.292 20.7321 159.992 20.7321" fill="white" fill-opacity="0.4"/>
<path d="M41.405 48.9231C40.769 48.9231 40.205 48.8801 39.739 48.7911C39.265 48.7161 38.853 48.6111 38.504 48.4731V45.4801C38.953 45.5977 39.4093 45.6852 39.87 45.7421C40.3904 45.8197 40.9159 45.8575 41.442 45.8551C41.9099 45.8547 42.3757 45.7919 42.827 45.6681C43.2953 45.5587 43.7313 45.3409 44.1 45.0321C44.487 44.7201 44.8 44.2901 45.036 43.7321C45.272 43.1741 45.392 42.4841 45.392 41.6361V14.2761H48.892V41.2701C48.892 42.5701 48.705 43.7151 48.332 44.6761C47.97 45.6361 47.459 46.4291 46.797 47.0531C46.147 47.6891 45.362 48.1571 44.439 48.4571C43.539 48.7691 42.285 48.9251 41.174 48.9251M60.729 39.2581C61.489 39.2581 62.195 39.1381 62.844 38.9021C63.493 38.6661 64.044 38.3091 64.528 37.8351C65.002 37.3481 65.37 36.7431 65.632 36.0201C65.906 35.2841 66.044 34.4231 66.044 33.4371V31.5841L63.368 31.7161C62.245 31.7661 61.303 31.8911 60.542 32.0901C59.781 32.2891 59.17 32.5701 58.708 32.9321C58.2713 33.2649 57.9346 33.7116 57.735 34.2231C57.535 34.7231 57.435 35.2901 57.435 35.9261C57.435 37.0741 57.735 37.9261 58.333 38.4521C58.933 38.9891 59.733 39.2571 60.728 39.2571M99.002 39.2671C99.762 39.2671 100.468 39.1471 101.117 38.9111C101.766 38.6751 102.317 38.3181 102.801 37.8441C103.275 37.3571 103.643 36.7521 103.905 36.0291C104.179 35.2931 104.317 34.4321 104.317 33.4461V31.5931L101.641 31.7251C100.518 31.7751 99.576 31.9001 98.815 32.0991C98.054 32.2981 97.443 32.5791 96.981 32.9411C96.5443 33.2739 96.2076 33.7206 96.008 34.2321C95.808 34.7321 95.708 35.2991 95.708 35.9351C95.708 37.0831 96.008 37.9351 96.606 38.4611C97.206 38.9981 98.006 39.2661 99.001 39.2661M128.695 34.3261C128.695 35.5261 128.477 36.6211 128.04 37.5821C127.616 38.5301 127.004 39.3351 126.206 39.9961C125.408 40.6571 124.434 41.1631 123.286 41.5121C122.138 41.8491 120.846 42.0171 119.412 42.0171C118.027 42.0171 116.73 41.9041 115.52 41.6801C114.322 41.4671 113.318 41.1501 112.507 40.7251V37.3951L113.947 37.9951L115.669 38.5001L117.522 38.8741C118.152 38.9613 118.786 39.0054 119.422 39.0061C121.418 39.0061 122.89 38.6321 123.838 37.8831C124.798 37.1331 125.278 36.0611 125.278 34.6631C125.278 33.9891 125.184 33.4031 124.998 32.9031C124.823 32.4031 124.505 31.9491 124.044 31.5371C123.594 31.1131 122.99 30.7071 122.229 30.3211C121.469 29.9211 120.507 29.4911 119.347 29.0211C118.247 28.5841 117.27 28.1211 116.447 27.5991C115.647 27.0751 114.962 26.4991 114.427 25.8391C113.9 25.183 113.499 24.4341 113.247 23.6311C112.997 22.8081 112.873 21.8711 112.873 20.8241C112.873 19.7261 113.073 18.7471 113.473 17.8861C113.873 17.0251 114.433 16.3011 115.157 15.7161C115.881 15.1161 116.741 14.6621 117.739 14.3501C118.737 14.0381 119.859 13.8821 121.069 13.8821C122.554 13.8821 123.889 14.0251 125.074 14.3121C126.259 14.5861 127.314 14.9421 128.237 15.3791L126.983 18.2991C126.183 17.9371 125.249 17.6251 124.213 17.3631C123.176 17.0869 122.106 16.9484 121.033 16.9511C119.511 16.9511 118.333 17.3071 117.496 18.0181C116.66 18.7181 116.242 19.6651 116.242 20.8621C116.242 21.5621 116.336 22.1921 116.522 22.7151C116.709 23.2271 117.022 23.6951 117.458 24.1191C117.895 24.5311 118.458 24.9241 119.18 25.2991C120.047 25.7267 120.934 26.1138 121.837 26.4591C122.972 26.9091 123.964 27.3591 124.812 27.8441C125.672 28.3181 126.39 28.8441 126.964 29.4441C127.535 30.0385 127.975 30.7461 128.255 31.5211C128.555 32.3071 128.713 33.2711 128.713 34.3451M141.376 41.9971C140.116 41.9971 138.936 41.8031 137.839 41.4171C136.752 41.0249 135.772 40.3842 134.976 39.5461C134.176 38.6861 133.529 37.5941 133.076 36.2711C132.614 34.9361 132.384 33.3331 132.384 31.4711C132.384 29.5111 132.621 27.8531 133.084 26.4931C133.558 25.1211 134.207 24.0101 135.03 23.1631C135.866 22.3031 136.83 21.6781 137.95 21.2931C139.07 20.9081 140.252 20.7131 141.524 20.7131C142.481 20.7115 143.435 20.8182 144.368 21.0311C145.304 21.2441 146.083 21.5051 146.708 21.8171L145.708 24.6991C145.396 24.5644 145.078 24.4456 144.754 24.3431C144.399 24.215 144.037 24.1088 143.669 24.0251C143.306 23.9273 142.937 23.8522 142.565 23.8001C142.203 23.7381 141.86 23.7061 141.535 23.7061C139.575 23.7061 138.148 24.3361 137.25 25.6061C136.352 26.8531 135.903 28.8001 135.903 31.4441C135.903 34.0771 136.353 36.0041 137.25 37.2271C138.15 38.4271 139.55 39.0421 141.386 39.0421C142.386 39.0421 143.306 38.9291 144.118 38.7051C144.941 38.4681 145.69 38.2051 146.364 37.8821V40.9141C145.679 41.2802 144.949 41.5568 144.193 41.7371C143.433 41.9241 142.446 42.0171 141.336 42.0171M159.933 20.7211L161.149 20.7761C161.538 20.794 161.926 20.8381 162.309 20.9081L161.859 24.0521L160.774 23.9021C160.412 23.8521 160.069 23.8271 159.744 23.8271C158.958 23.8271 158.241 23.9891 157.592 24.3141C156.942 24.6261 156.392 25.0811 155.908 25.6801C155.446 26.2661 155.085 26.9781 154.823 27.8131C154.573 28.6361 154.449 29.5531 154.449 30.5631V41.6411H151.043V21.0981H153.813L154.225 24.8581H154.375L155.367 23.3051C155.71 22.8233 156.113 22.3865 156.565 22.0051C157.011 21.6202 157.517 21.3105 158.062 21.0881C158.612 20.8511 159.292 20.7321 159.992 20.7321M66.287 38.8001H66.137C65.725 39.3601 65.314 39.8481 64.902 40.2601C64.5011 40.6515 64.0478 40.9854 63.555 41.2521C63.068 41.5141 62.525 41.7071 61.927 41.8321C61.329 41.9571 60.627 42.0191 59.85 42.0191C58.99 42.0191 58.197 41.8931 57.473 41.6451C56.7697 41.42 56.1245 41.0431 55.583 40.5411C55.059 40.0411 54.647 39.3931 54.348 38.6411C54.048 37.8681 53.898 36.9571 53.898 35.9091C53.898 33.8631 54.615 32.2911 56.05 31.1931C57.497 30.0951 59.693 29.4961 62.637 29.3961L66.08 29.2641V27.9641C66.08 27.1281 65.986 26.4291 65.8 25.8681C65.625 25.3081 65.363 24.8681 65.014 24.5211C64.677 24.1711 64.254 23.9211 63.741 23.7711C63.241 23.6211 62.668 23.5471 62.019 23.5471C61.0341 23.5388 60.0543 23.6904 59.118 23.9961C58.232 24.2961 57.378 24.6561 56.554 25.0811L55.356 22.5171C56.279 22.0171 57.308 21.5941 58.444 21.2441C59.6024 20.8914 60.8071 20.7148 62.018 20.7201C63.291 20.7201 64.388 20.8521 65.312 21.1131C66.248 21.3631 67.015 21.7681 67.614 22.3291C68.214 22.8791 68.681 23.5831 68.98 24.4441C69.279 25.3051 69.43 26.3471 69.43 27.5691V41.6421H66.972L66.287 38.8001ZM72.288 21.0971H75.806L79.53 32.5301L80.017 34.1301L80.577 36.1141L81.082 38.0141L81.4 39.3801H81.53L81.848 38.0141L82.353 36.1141L82.913 34.1301L83.4 32.5301L87.124 21.0961H90.642L83.624 41.6441H79.3L72.288 21.0971ZM104.56 38.8001H104.41C103.998 39.3601 103.587 39.8481 103.175 40.2601C102.774 40.6515 102.321 40.9854 101.828 41.2521C101.341 41.5141 100.798 41.7071 100.2 41.8321C99.602 41.9571 98.9 42.0191 98.123 42.0191C97.263 42.0191 96.47 41.8931 95.746 41.6451C95.0427 41.42 94.3975 41.0431 93.856 40.5411C93.332 40.0411 92.92 39.3931 92.621 38.6411C92.321 37.8681 92.171 36.9571 92.171 35.9091C92.171 33.8631 92.888 32.2911 94.323 31.1931C95.77 30.0951 97.966 29.4961 100.91 29.3961L104.353 29.2641V27.9641C104.353 27.1281 104.259 26.4291 104.073 25.8681C103.898 25.3081 103.636 24.8681 103.287 24.5211C102.95 24.1711 102.527 23.9211 102.014 23.7711C101.514 23.6211 100.941 23.5471 100.292 23.5471C99.3071 23.5388 98.3273 23.6904 97.391 23.9961C96.505 24.2961 95.651 24.6561 94.827 25.0811L93.629 22.5171C94.552 22.0171 95.581 21.5941 96.717 21.2441C97.8754 20.8914 99.0801 20.7148 100.291 20.7201C101.564 20.7201 102.661 20.8521 103.585 21.1131C104.521 21.3631 105.288 21.7681 105.887 22.3291C106.487 22.8791 106.954 23.5831 107.253 24.4441C107.552 25.3051 107.703 26.3471 107.703 27.5691V41.6421H105.253L104.56 38.8001Z" stroke="white" stroke-opacity="0.4" stroke-width="2.129"/>
<path d="M169.507 41.644H166.1V21.096H169.506V41.644M166.4 13.9C166.787 13.563 167.26 13.395 167.822 13.395C168.096 13.395 168.352 13.438 168.589 13.527C168.829 13.5964 169.048 13.725 169.225 13.901C169.412 14.076 169.555 14.301 169.655 14.575C169.767 14.837 169.823 15.155 169.823 15.529C169.823 16.253 169.623 16.795 169.223 17.157C168.836 17.507 168.368 17.681 167.819 17.681C167.259 17.681 166.769 17.418 166.382 17.069C166.008 16.719 165.832 16.177 165.832 15.484C165.834 14.779 166.022 14.237 166.396 13.9H166.4Z" fill="white" fill-opacity="0.4"/>
<path d="M169.507 41.644H166.1V21.096H169.506V41.644M166.4 13.9C166.787 13.563 167.26 13.395 167.822 13.395C168.096 13.395 168.352 13.438 168.589 13.527C168.829 13.5964 169.048 13.725 169.225 13.901C169.412 14.076 169.555 14.301 169.655 14.575C169.767 14.837 169.823 15.155 169.823 15.529C169.823 16.253 169.623 16.795 169.223 17.157C168.836 17.507 168.368 17.681 167.819 17.681C167.259 17.681 166.769 17.418 166.382 17.069C166.008 16.719 165.832 16.177 165.832 15.484C165.834 14.779 166.022 14.237 166.396 13.9H166.4Z" stroke="white" stroke-opacity="0.4" stroke-width="2.129" stroke-linecap="square"/>
<path d="M185.126 42.0181C184.39 42.0181 183.722 41.9381 183.124 41.7751C182.526 41.6121 181.982 41.4011 181.496 41.1391C181.022 40.8651 180.598 40.546 180.223 40.184C179.868 39.8307 179.543 39.4491 179.25 39.0431H179.025L179.137 40.2591L179.212 41.2591L179.249 42.0641V50.841H175.843V21.0961H178.613L179.1 23.8661H179.25C179.536 23.4312 179.861 23.0241 180.223 22.6501C180.59 22.2593 181.012 21.925 181.477 21.6581C181.964 21.3711 182.507 21.1461 183.105 20.9841C183.705 20.8091 184.378 20.7221 185.125 20.7221C186.298 20.7221 187.365 20.9471 188.325 21.3961C189.297 21.8552 190.14 22.5499 190.776 23.4171C191.462 24.3031 191.992 25.4171 192.376 26.7291C192.76 28.0411 192.936 29.5861 192.936 31.3331C192.936 33.0931 192.749 34.6391 192.376 35.9731C192.002 37.2951 191.471 38.4061 190.776 39.3031C190.102 40.2011 189.276 40.881 188.326 41.3431C187.366 41.793 186.062 42.017 184.89 42.017M184.47 23.5471C183.522 23.5471 182.717 23.6901 182.056 23.9771C181.415 24.2579 180.864 24.7115 180.465 25.2871C180.065 25.8731 179.765 26.6031 179.567 27.4871C179.38 28.3601 179.274 29.3891 179.249 30.5751V31.3421C179.249 32.6021 179.329 33.7251 179.492 34.7101C179.667 35.6831 179.954 36.5071 180.352 37.1801C180.746 37.8248 181.309 38.3491 181.98 38.6961C182.654 39.0331 183.496 39.2011 184.506 39.2011C186.19 39.2011 187.426 38.5211 188.211 37.1611C189.009 35.8011 189.409 33.8491 189.409 31.3041C189.409 28.7091 189.009 26.7691 188.211 25.4841C187.425 24.1991 186.177 23.5571 184.468 23.5571M204.3 39.2301C204.525 39.2301 204.774 39.2101 205.05 39.1921L205.873 39.0981L206.573 38.9661L207.078 38.8341V41.4171C206.916 41.4921 206.71 41.567 206.46 41.642C206.21 41.717 205.936 41.7781 205.637 41.8291C205.328 41.8925 205.015 41.9365 204.701 41.9611C204.384 41.9981 204.066 42.0165 203.747 42.0161C203.019 42.0222 202.294 41.9211 201.595 41.7161C200.944 41.5225 200.352 41.1687 199.873 40.6871C199.399 40.2001 199.025 39.5471 198.75 38.7221C198.476 37.8861 198.338 36.8381 198.338 35.5781V23.6581H195.438V22.1421L198.338 20.6821L199.798 16.3781H201.763V21.0941H206.928V23.6581H201.763V35.5781C201.763 36.7781 201.956 37.6981 202.343 38.3101C202.743 38.9101 203.391 39.2271 204.289 39.2271" fill="white" fill-opacity="0.4"/>
<path d="M185.126 42.0181C184.39 42.0181 183.722 41.9381 183.124 41.7751C182.526 41.6121 181.982 41.4011 181.496 41.1391C181.022 40.8651 180.598 40.546 180.223 40.184C179.868 39.8307 179.543 39.4491 179.25 39.0431H179.025L179.137 40.2591L179.212 41.2591L179.249 42.0641V50.841H175.843V21.0961H178.613L179.1 23.8661H179.25C179.536 23.4312 179.861 23.0241 180.223 22.6501C180.59 22.2593 181.012 21.925 181.477 21.6581C181.964 21.3711 182.507 21.1461 183.105 20.9841C183.705 20.8091 184.378 20.7221 185.125 20.7221C186.298 20.7221 187.365 20.9471 188.325 21.3961C189.297 21.8552 190.14 22.5499 190.776 23.4171C191.462 24.3031 191.992 25.4171 192.376 26.7291C192.76 28.0411 192.936 29.5861 192.936 31.3331C192.936 33.0931 192.749 34.6391 192.376 35.9731C192.002 37.2951 191.471 38.4061 190.776 39.3031C190.102 40.2011 189.276 40.881 188.326 41.3431C187.366 41.793 186.062 42.017 184.89 42.017M184.47 23.5471C183.522 23.5471 182.717 23.6901 182.056 23.9771C181.415 24.2579 180.864 24.7115 180.465 25.2871C180.065 25.8731 179.765 26.6031 179.567 27.4871C179.38 28.3601 179.274 29.3891 179.249 30.5751V31.3421C179.249 32.6021 179.329 33.7251 179.492 34.7101C179.667 35.6831 179.954 36.5071 180.352 37.1801C180.746 37.8248 181.309 38.3491 181.98 38.6961C182.654 39.0331 183.496 39.2011 184.506 39.2011C186.19 39.2011 187.426 38.5211 188.211 37.1611C189.009 35.8011 189.409 33.8491 189.409 31.3041C189.409 28.7091 189.009 26.7691 188.211 25.4841C187.425 24.1991 186.177 23.5571 184.468 23.5571M204.3 39.2301C204.525 39.2301 204.774 39.2101 205.05 39.1921L205.873 39.0981L206.573 38.9661L207.078 38.8341V41.4171C206.916 41.4921 206.71 41.567 206.46 41.642C206.21 41.717 205.936 41.7781 205.637 41.8291C205.328 41.8925 205.015 41.9365 204.701 41.9611C204.384 41.9981 204.066 42.0165 203.747 42.0161C203.019 42.0222 202.294 41.9211 201.595 41.7161C200.944 41.5225 200.352 41.1687 199.873 40.6871C199.399 40.2001 199.025 39.5471 198.75 38.7221C198.476 37.8861 198.338 36.8381 198.338 35.5781V23.6581H195.438V22.1421L198.338 20.6821L199.798 16.3781H201.763V21.0941H206.928V23.6581H201.763V35.5781C201.763 36.7781 201.956 37.6981 202.343 38.3101C202.743 38.9101 203.391 39.2271 204.289 39.2271" stroke="white" stroke-opacity="0.4" stroke-width="2.129"/>
</svg>
