<svg width="285" height="109" viewBox="0 0 285 109" fill="none" xmlns="http://www.w3.org/2000/svg">
<path d="M61.8459 60.7561C66.4047 60.7561 70.1004 57.9292 70.1004 54.4421C70.1004 50.955 66.4047 48.1282 61.8459 48.1282C57.2871 48.1282 53.5914 50.955 53.5914 54.4421C53.5914 57.9292 57.2871 60.7561 61.8459 60.7561Z" fill="white" fill-opacity="0.4"/>
<path fill-rule="evenodd" clip-rule="evenodd" d="M61.8461 41.6046C72.9288 41.6046 83.2244 42.821 90.9872 44.8652C100.34 47.3283 106.091 51.0616 106.091 54.4422C106.091 57.965 99.9965 61.9312 89.9525 64.4767C82.3589 66.401 72.3664 67.4056 61.8461 67.4056C51.0598 67.4056 40.8458 66.4627 33.1667 64.4555C23.4513 61.9154 17.5996 57.8979 17.5996 54.4422C17.5996 51.0891 23.0903 47.3845 32.312 44.9253C40.1037 42.8473 50.6536 41.6046 61.8446 41.6046H61.8461Z" stroke="white" stroke-opacity="0.4" stroke-width="1.66272"/>
<path fill-rule="evenodd" clip-rule="evenodd" d="M47.236 48.0604C52.7727 40.7168 59.2934 34.5024 65.4867 30.3798C72.9486 25.4126 80.0497 23.4674 83.878 25.156C87.8678 26.9159 89.3148 32.9358 87.1799 40.8627C85.5674 46.8558 81.7115 53.9786 76.4558 60.9497C71.0671 68.097 64.8969 74.3939 58.788 78.4783C51.0579 83.6471 43.5845 85.5176 39.6709 83.7912C35.8733 82.1172 34.4211 76.6273 36.2429 69.2881C37.7821 63.087 41.6451 55.4757 47.2341 48.0603L47.236 48.0604Z" stroke="white" stroke-opacity="0.4" stroke-width="1.66272"/>
<path fill-rule="evenodd" clip-rule="evenodd" d="M47.2497 60.9684C41.6973 53.6331 37.917 46.2068 36.3391 40.0438C34.4396 32.6181 35.7826 26.9406 39.6075 25.2471C43.5933 23.482 51.1344 25.5295 59.0463 30.9032C65.0283 34.9659 71.1709 41.0772 76.4419 48.0417C81.8461 55.1821 85.8964 62.416 87.472 68.5041C89.4658 76.2083 87.8521 82.0948 83.9422 83.8261C80.1484 85.5061 73.2059 83.7274 65.8033 78.8547C59.5486 74.7379 52.8569 68.3766 47.2497 60.9683V60.9684Z" stroke="white" stroke-opacity="0.4" stroke-width="1.66272"/>
<path fill-rule="evenodd" clip-rule="evenodd" d="M153.473 70.5738L143.355 58.8817C148.468 58.5366 153.076 55.7026 153.076 50.5251C153.076 45.2567 148.188 41.885 141.332 41.885H126.274V70.552H130.939V59.1615H138.413L147.965 70.552L153.473 70.5738ZM140.773 56.0459H130.941V45.086H140.773C145.215 45.086 148.248 47.3205 148.248 50.5451C148.248 53.7696 145.212 56.0496 140.773 56.0496V56.0459ZM170.836 71.0879C175.277 71.0879 178.928 69.9707 181.626 67.9088L179.602 65.8014C177.465 67.4782 174.32 68.4229 171.23 68.4229C165.388 68.4229 161.79 65.1565 161.453 61.247H183.421V60.4295C183.421 54.1984 178.588 49.297 170.383 49.297C162.628 49.297 157.011 54.1548 157.011 60.1716C157.011 66.6625 162.799 71.0716 170.834 71.0716L170.836 71.0879ZM179.267 58.8799H161.455C161.681 55.7008 164.542 51.9584 170.333 51.9584C176.515 51.9584 179.21 55.7843 179.267 58.8799ZM211.411 70.572V56.3021C211.411 51.2735 206.637 49.2952 200.904 49.2952C196.462 49.2952 192.981 50.4124 190.059 52.7341L192.026 54.9686C194.441 52.9921 197.085 52.0892 200.343 52.0892C204.276 52.0892 207.2 53.6788 207.2 56.4728V60.2115C205.008 58.2768 201.918 57.3739 198.208 57.3739C193.601 57.3739 188.708 59.5666 188.708 64.2082C188.708 68.7208 193.596 71.0861 198.208 71.0861C201.861 71.0861 204.953 70.0978 207.2 68.2067V70.5684L211.411 70.572ZM199.726 68.7662C195.793 68.7662 193.038 66.8769 193.038 64.2536C193.038 61.5886 195.793 59.6974 199.726 59.6974C202.704 59.6974 205.568 60.5567 207.2 62.2771V66.1884C205.571 67.9069 202.704 68.7662 199.726 68.7662ZM231.788 71.0879C236.733 71.0879 239.654 69.5401 241.735 67.4782L238.925 65.5017C237.127 67.3492 234.823 68.2085 232.038 68.2085C226.25 68.2085 222.656 64.7696 222.656 60.1716C222.656 55.5736 226.252 52.1782 232.038 52.1782C234.847 52.1782 237.151 52.9957 238.925 54.8851L241.735 52.9085C239.657 50.8448 236.733 49.2988 231.788 49.2988C223.697 49.2988 218.246 54.0276 218.246 60.1734C218.246 66.3628 223.697 71.0734 231.788 71.0734V71.0879ZM254.493 71.0879C256.963 71.0879 258.483 70.5284 259.552 69.7563L258.317 67.3492C257.754 67.8216 256.654 68.2085 255.45 68.2085C253.598 68.2085 252.695 67.0913 252.695 65.5435V52.6488H258.205V49.8129H252.695V44.1395H248.48V49.8129H243.984V52.6506H248.48V66.2338C248.48 69.3294 250.503 71.0916 254.493 71.0916V71.0879Z" fill="white" fill-opacity="0.4"/>
</svg>
